<?xml version="1.0" standalone="no"?>
<!DOCTYPE svg PUBLIC "-//W3C//DTD SVG 20010904//EN"
 "http://www.w3.org/TR/2001/REC-SVG-20010904/DTD/svg10.dtd">
<svg version="1.0" xmlns="http://www.w3.org/2000/svg"
 width="512.000000pt" height="512.000000pt" viewBox="0 0 512.000000 512.000000"
 preserveAspectRatio="xMidYMid meet">

<g transform="translate(0.000000,512.000000) scale(0.100000,-0.100000)"
fill="#000000" stroke="none">
<path d="M0 4418 c1 -594 3 -698 14 -673 16 37 52 70 89 84 40 15 4874 15
4914 0 37 -14 73 -47 89 -84 11 -25 13 79 14 673 l0 702 -2560 0 -2560 0 0
-702z"/>
<path d="M1 3120 c0 -446 2 -520 13 -495 16 37 52 70 89 84 20 8 761 11 2457
11 1696 0 2437 -3 2457 -11 37 -14 73 -47 89 -84 11 -25 13 49 13 495 0 446
-2 520 -13 495 -16 -37 -52 -70 -89 -84 -20 -8 -761 -11 -2457 -11 -1696 0
-2437 3 -2457 11 -37 14 -73 47 -89 84 -11 25 -13 -49 -13 -495z"/>
<path d="M0 1263 l0 -1263 2560 0 2560 0 0 703 c-1 592 -3 697 -14 672 -18
-41 -69 -83 -109 -90 -18 -3 -766 -4 -1664 -3 -1630 3 -1632 3 -1659 24 -53
39 -69 71 -69 134 0 63 16 95 69 134 27 21 29 21 1659 24 898 1 1646 0 1664
-3 40 -7 91 -49 109 -90 11 -25 13 50 13 495 0 446 -2 520 -13 495 -16 -37
-52 -70 -89 -84 -40 -15 -4874 -15 -4914 0 -37 14 -73 47 -89 84 -11 25 -13
-172 -14 -1232z"/>
</g>
</svg>
